M48
;DRILL file {Pcbnew (2012-jan-04)-stable} date Ср. 12 дек. 2012 22:43:00
;FORMAT={-:-/ absolute / inch / decimal}
FMAT,2
INCH,TZ
T1C0.032
T2C0.035
T3C0.040
T4C0.120
%
G90
G05
M72
T1
X4.750Y2.450
X4.850Y2.450
X4.950Y2.450
X5.050Y2.450
X5.150Y2.450
T2
X4.725Y2.950
X4.775Y2.850
X4.825Y2.950
X4.875Y2.850
X4.925Y2.950
X4.975Y2.850
X5.025Y2.950
X5.075Y2.850
T4
X4.100Y2.400
X4.100Y3.350
X5.850Y2.350
X5.850Y3.300
T3
X5.710Y2.880G85X5.710Y2.820
G05
X5.890Y2.650G85X5.830Y2.650
G05
X5.950Y2.880G85X5.950Y2.820
G05
T0
M30
